<svg xmlns="http://www.w3.org/2000/svg" xmlns:xlink="http://www.w3.org/1999/xlink"><g><style>text{font-family:&quot;Exo&quot;,&quot;HelveticaNeue&quot;,&quot;Helvetica Neue&quot;,Helvetica,Arial,sans-serif;font-weight:700;fill:#eee;opacity:.7;cursor:default;-webkit-touch-callout:none;-webkit-user-select:none;-khtml-user-select:none;-moz-user-select:none;-ms-user-select:none;user-select:none}text.site{fill:#200;opacity:.5}.dark{fill:#111}</style><text x="2040" y="4840" class="site" font-size="300">B</text><text x="1900" y="1700" class="site" font-size="300">A</text><text x="5190" y="3600" font-size="340">T</text><text x="600" y="3050" font-size="300">CT</text><text x="1430" y="3460" font-size="120">Z CONNECT<tspan class="dark">OR</tspan></text><text x="2920" y="2990" font-size="155">BOOST</text><text x="2100" y="3340" class="dark" font-size="240">MIDDLE</text><text x="2440" y="3590" font-size="130">ROOF</text><text x="2600" y="3750" font-size="100">VENTS</text><text x="2630" y="4560" font-size="200">B HALLS</text><text x="2100" y="3540" class="dark" font-size="90">SAND</text><text x="2100" y="3630" class="dark" font-size="90">BAGS</text><text x="3830" y="4320" font-size="165">OUTSIDE B</text><text x="2330" y="4160" font-size="100">B MAIN</text><text x="2000" y="3860" font-size="120">CHECKERS</text><text x="1660" y="4230" font-size="110">HEAVEN</text><text x="-5000" y="1940" font-size="90" transform="rotate(-90 0 0)">GENERATOR (HS)</text><text x="1640" y="4437" font-size="140">CT</text><text x="2820" y="4900" font-size="200">TOXIC</text><text x="3150" y="3430" font-size="200">GARAGE</text><text x="1840" y="1320" font-size="100">QUAD B.</text><text x="2370" y="2050" font-size="100">FORKLIFT</text><text x="1700" y="-2840" font-size="220" transform="rotate(90 0 0)">A MAIN</text><text x="2430" y="1370" font-size="120">SQUEAKY</text><text x="2470" y="-2100" font-size="140" transform="rotate(90 0 0)">HIGHWAY</text><text x="2510" y="-1980" font-size="120" transform="rotate(90 0 0)">(A RAMP)</text><text x="2370" y="-1280" font-size="120" transform="rotate(90 0 0)">TRUCK</text></g></svg>