<svg xmlns="http://www.w3.org/2000/svg" xmlns:xlink="http://www.w3.org/1999/xlink"><g><style>text{font-family:&quot;Exo&quot;,&quot;HelveticaNeue&quot;,&quot;Helvetica Neue&quot;,Helvetica,Arial,sans-serif;font-weight:700;fill:#eee;opacity:.7;cursor:default;-webkit-touch-callout:none;-webkit-user-select:none;-khtml-user-select:none;-moz-user-select:none;-ms-user-select:none;user-select:none}text.site{fill:#622;opacity:.5}text.plant{fill:#fd4}</style><text x="3510" y="1030" class="site" font-size="260">A</text><text x="750" y="720" class="site" font-size="260">B</text><text x="3535" y="920" class="plant" font-size="60">DEF</text><text x="3560" y="1035" class="plant" font-size="60">LONG</text><text x="3605" y="820" class="plant" font-size="60">SAFE</text><text x="840" y="-3410" class="plant" font-size="60" transform="rotate(90 0 0)">CAT</text><text x="970" y="850" class="plant" font-size="70">DEF</text><text x="920" y="560" class="plant" font-size="70" transform="rotate(30 920 560)">SAFE</text><text x="810" y="620" class="plant" font-size="60" transform="rotate(20 810 620)">HID</text><text x="2040" y="1980" font-size="80">XBOX</text><text x="1955" y="2140" font-size="300" transform="rotate(90 1955 2140)">MID</text><text x="1925" y="1590" font-size="100">MID</text><text x="1840" y="1690" font-size="100">DOORS</text><text x="2230" y="2040" font-size="120" transform="rotate(90 2230 2040)">CATWALK</text><text x="2350" y="2000" font-size="220">CAT</text><text x="2760" y="1510" font-size="80" transform="rotate(90 2720 1510)">STAIRS</text><text x="2780" y="800" font-size="180" transform="rotate(90 2780 800)">SHORT A</text><text x="1500" y="1250" font-size="220">CT MID</text><text x="2300" y="1230" font-size="80">CT (SPAWN)</text><text x="3750" y="1360" font-size="350" transform="rotate(90 3750 1360)">LONG A</text><text x="3740" y="1080" font-size="90" transform="rotate(90 3740 1080)">CROSS</text><text x="4050" y="1080" font-size="260" transform="rotate(90 4050 1080)">CAR</text><g><text x="5" y="0" font-size="60" transform="translate(730 820)">DOUB</text><text x="0" y="60" font-size="60" transform="translate(730 820)">STACK</text></g><g><text x="8" y="0" font-size="60" transform="translate(590 975)">BIG</text><text x="0" y="60" font-size="60" transform="translate(590 975)">BOX</text></g><text x="4090" y="2390" font-size="150" transform="rotate(90 4090 2390)">PIT PLAT</text><text x="3150" y="2260" font-size="100">BLUE</text><text x="3500" y="2230" font-size="70" transform="rotate(-25 3500 2230)">CORNER</text><text x="3830" y="600" font-size="160" transform="rotate(90 3830 600)">RAMP</text><text x="3100" y="1260" font-size="140">CT RAMP</text><text x="2640" y="620" font-size="60">NINJA</text><text x="3670" y="500" font-size="60">BARRELS</text><text x="3480" y="320" font-size="90" transform="rotate(90 3480 320)">GOOSE</text><text x="3740" y="2960" font-size="190">PIT</text><text x="1860" y="3070" font-size="190">TOP MID</text><text x="2140" y="2860" font-size="80">PALM</text><text x="1960" y="3300" font-size="130" transform="rotate(90 1960 3300)">SUICIDE</text><text x="1260" y="4265" font-size="160">T (SPAWN)</text><text x="2200" y="4200" font-size="120">T RAMP</text><text x="2720" y="-3120" font-size="120" transform="rotate(90 0 0)">LONG</text><text x="2670" y="-3010" font-size="120" transform="rotate(90 0 0)">DOORS</text><text x="325" y="410" font-size="110">HS</text><text x="330" y="470" font-size="68">BOX</text><text x="340" y="770" font-size="150">PLAT</text><text x="3325" y="1015" font-size="60">ELEV</text><text x="3320" y="1070" font-size="60">ATOR</text><text x="2990" y="1015" font-size="60">BOOST</text><text x="3450" y="2850" font-size="140">PIT</text><text x="3400" y="2980" font-size="140">SIDE</text><g><text x="0" y="0" font-size="140" transform="translate(2600 3300)">OUTSIDE</text><text x="110" y="140" font-size="140" transform="translate(2600 3300)">LONG</text></g><text x="400" y="2240" font-size="180">UPPER B</text><text x="500" y="2340" font-size="100">(TUNNELS)</text><text x="1225" y="1960" font-size="140">LOWER B</text><text x="1325" y="2040" font-size="80">(TUNNELS)</text><text x="800" y="1730" font-size="140" transform="rotate(-45 800 1730)">CAR</text><text x="1010" y="720" font-size="60">WINDOW</text><g><text x="130" y="0" font-size="100" transform="translate(970 1100)">B</text><text x="0" y="100" font-size="100" transform="translate(970 1100)">DOORS</text></g><g><text x="20" y="0" font-size="140" transform="translate(450 3100)">OUTSIDE</text><text x="0" y="140" font-size="140" transform="translate(450 3100)">TUNNELS</text></g><g><text x="10" y="0" font-size="70" transform="translate(1240 1270)">DOOR</text><text x="0" y="65" font-size="70" transform="translate(1240 1270)">BOXES</text></g><g><text x="0" y="0" font-size="60" transform="translate(2235 1340)">MAGIC</text><text x="30" y="55" font-size="60" transform="translate(2235 1340)">BOX</text></g><text x="1075" y="-230" font-size="70" transform="rotate(90 0 0)">FENCE</text><path id="scaffold" d="M1370 630 a 110 110 0 0 0 220 150" visibility="hidden"/><text font-size="60"><textPath xlink:href="#scaffold">SCAFFOLD</textPath></text></g></svg>