<svg xmlns="http://www.w3.org/2000/svg" xmlns:xlink="http://www.w3.org/1999/xlink"><g><style>text{font-family:&quot;Exo&quot;,&quot;HelveticaNeue&quot;,&quot;Helvetica Neue&quot;,Helvetica,Arial,sans-serif;font-weight:700;fill:#eee;opacity:.7;cursor:default;-webkit-touch-callout:none;-webkit-user-select:none;-khtml-user-select:none;-moz-user-select:none;-ms-user-select:none;user-select:none}text.site{fill:#200;opacity:.5}</style><text x="4100" y="4030" class="site" font-size="300">A</text><text x="2600" y="1740" class="site" font-size="300">B</text><text x="450" y="3970" font-size="340">T</text><text x="2050" y="-4550" font-size="280" transform="rotate(90 0 0)">CT</text><text x="2560" y="930" font-size="110">GARDEN</text><text x="3120" y="1650" font-size="140">CT</text><text x="3450" y="1440" font-size="110">TRUCK</text><g><text x="40" font-size="110" transform="translate(2930 1150)">CONST-</text><text y="110" font-size="110" transform="translate(2930 1150)">RUCTION</text></g><text x="1070" y="-2685" font-size="100" transform="rotate(90 0 0)">SPOOLS</text><text x="1350" y="-2785" font-size="100" transform="rotate(90 0 0)">GRILL</text><text x="1180" y="-2180" font-size="100" transform="rotate(90 0 0)">DARK</text><text x="1640" y="-2180" font-size="95" transform="rotate(90 0 0)">NEW B.</text><text x="1780" y="-2620" font-size="100" transform="rotate(90 0 0)">1st</text><text x="1755" y="-2480" font-size="90" transform="rotate(90 0 0)">2nd</text><text x="3960" y="2080" font-size="100">TERRACE</text><text x="4030" y="1780" font-size="100">WELL</text><text x="1700" y="-3735" font-size="200" transform="rotate(90 0 0)">SPEEDWAY</text><text x="4440" y="2940" font-size="110">KITCHEN</text><text x="4600" y="3270" font-size="110">LIBRARY</text><text x="2700" y="-3970" font-size="200" transform="rotate(90 0 0)">ARCH</text><text x="3650" y="3340" font-size="180">ARCH SIDE</text><text x="3365" y="3230" font-size="90">CUBBY</text><text x="2340" y="2970" font-size="160" transform="rotate(-63.5 2335 2980)">BANANA</text><text x="2080" y="3045" font-size="100">LOGS</text><text x="2510" y="2340" font-size="120">CAR</text><text x="2750" y="2490" font-size="100">SAND B.</text><text x="1730" y="3600" font-size="140">T RAMP</text><text x="2730" y="3895" font-size="190">MIDDLE</text><text x="3180" y="4100" font-size="100">BOILER</text><text x="1920" y="4600" font-size="180">ALT MIDDLE</text><text x="4280" y="-1755" font-size="130" transform="rotate(90 0 0)" style="fill:#fff">BRIDGE</text><text x="3710" y="-2430" font-size="130" transform="rotate(90 0 0)">UNDERPASS</text><text x="3830" y="-2350" font-size="90" transform="rotate(90 0 0)">(MEXICAN)</text><text x="3700" y="4370" font-size="140">TRUCK SIDE</text><text x="4100" y="4495" font-size="110">TRUCK</text><text x="4520" y="-4265" font-size="100" transform="rotate(90 0 0)" style="fill:#fff">BALCONY</text><text x="4400" y="4770" font-size="200">PIT</text><text x="3780" y="-4680" font-size="120" transform="rotate(90 0 0)">GRAVEYARD</text><text x="4130" y="-3380" font-size="130" transform="rotate(90 0 0)">APARTMENTS</text><text x="3140" y="5060" font-size="110">STAIRS</text><text x="3520" y="4770" font-size="120">LONG HALL</text><text x="1870" y="4990" font-size="140">T APARTMENTS</text><text x="4250" y="-3270" font-size="100" transform="rotate(90 0 0)">WINDOW</text><text x="4330" y="-3190" font-size="100" transform="rotate(90 0 0)">ROOM</text><text x="4720" y="-3270" font-size="90" transform="rotate(90 0 0)">DARK</text><text x="4710" y="-3190" font-size="90" transform="rotate(90 0 0)">ROOM</text></g></svg>