<svg xmlns="http://www.w3.org/2000/svg" xmlns:xlink="http://www.w3.org/1999/xlink"><g><style>text{font-family:&quot;Exo&quot;,&quot;HelveticaNeue&quot;,&quot;Helvetica Neue&quot;,Helvetica,Arial,sans-serif;font-weight:700;fill:#eee;opacity:.7;cursor:default;-webkit-touch-callout:none;-webkit-user-select:none;-khtml-user-select:none;-moz-user-select:none;-ms-user-select:none;user-select:none}text.site{fill:#551515;opacity:.5}.plant{opacity:.7;fill:#fd4}</style><text x="2650" y="4030" class="site" font-size="260">A</text><text x="1030" y="1620" class="site" font-size="260">B</text><text x="1125" y="1350" class="plant" font-size="80">DEF</text><text x="1025" y="1620" class="plant" font-size="80">COR</text><circle cx="2585" cy="3715" r="20" class="plant"/><text x="1350" y="-2190" font-size="100" transform="rotate(90 0 0)" style="fill:#000">UNDERPASS</text><text x="815" y="1030" font-size="100" transform="rotate(10 820 1050)">VAN</text><text x="1320" y="1020" font-size="140">APARTMENTS</text><text x="3200" y="940" font-size="130">HOUSE</text><text x="2570" y="1230" font-size="150">ALLEY</text><text x="1180" y="-590" font-size="140" transform="rotate(90 0 0)">BENCH</text><text x="1980" y="-870" font-size="100" transform="rotate(90 0 0)">DOOR</text><text x="1050" y="2070" font-size="100">WINDOW</text><text x="865" y="2390" font-size="112">MARKET/KITCH.</text><text x="1850" y="1600" font-size="170">CAT</text><text x="2400" y="2210" font-size="170">CATWALK</text><text x="2600" y="2450" font-size="190">MIDDLE</text><text x="1600" y="-3500" font-size="160" transform="rotate(90 0 0)">TOP MID</text><text x="2300" y="-3590" font-size="100" transform="rotate(90 0 0)">CART</text><text x="1540" y="-4380" font-size="250" transform="rotate(90 0 0)">T SPAWN</text><g><text x="0" y="0" font-size="90" transform="translate(1800 1900)">LADDER</text><text x="50" y="90" font-size="90" transform="translate(1800 1900)">ROOM</text></g><text x="2160" y="-2040" font-size="110" transform="rotate(90 0 0)">WINDOW</text><text x="2240" y="-2160" font-size="90" transform="rotate(90 0 0)">BOOST</text><text x="2000" y="3200" font-size="120">JUNGLE</text><text x="2500" y="-2530" font-size="110" transform="rotate(90 0 0)">CONNECTOR</text><text x="3010" y="-2690" font-size="90" transform="rotate(90 0 0)">STAIRS</text><g><text x="0" y="0" font-size="90" transform="translate(2800 3300)">SAND</text><text x="5" y="90" font-size="90" transform="translate(2800 3300)">WICH</text></g><text x="3080" y="3200" font-size="90">TETRIS</text><g><text x="0" y="0" font-size="130" transform="translate(3440 3250)">A MAIN/</text><text x="15" y="130" font-size="130" transform="translate(3440 3250)">T RAMP</text></g><text x="3460" y="-3230" font-size="100" transform="rotate(90 0 0)">BALCONY</text><text x="3530" y="3950" font-size="190">PALACE</text><text x="1160" y="3660" font-size="130">CT SPAWN</text><text x="2040" y="4160" font-size="210">CT</text><text x="2150" y="4330" font-size="110">BOOTH</text><g><text x="0" y="0" font-size="90" transform="translate(2800 3800)">TRIPLE</text><text x="20" y="90" font-size="90" transform="translate(2800 3800)">STACK</text></g><text x="2865" y="4115" font-size="90">FIRE B.</text><g><text x="0" y="0" font-size="90" transform="translate(2380 3810)">DANGER</text><text x="50" y="90" font-size="90" transform="translate(2380 3810)">BOX</text></g></g></svg>